<svg width="2000" height="1600" viewBox="0 0 2000 1600" fill="none" xmlns="http://www.w3.org/2000/svg">
<g clip-path="url(#clip0_1134_9451)">
<rect width="2000" height="1600" fill="#D4CABE"/>
<path fill-rule="evenodd" clip-rule="evenodd" d="M658 -216H931.5L1000 799L658 -216ZM1000 799L1068.5 -216H1342L1000 799ZM1000 799L1869 -207H1535.5L1000 799ZM1000 799L2461.5 74.5L2104 -142.5L1000 799ZM1000 799L2689.5 686.5L2705 249.5L1000 799ZM1000 799L2566 1327L2588 924.5L1000 799ZM1000 799L2274 1892L2511.5 1569.5L1000 799ZM1000 799L1671.5 2145.5L1957 1919.5L1000 799ZM1000 799L1113 2171L1438 2126.5L1000 799ZM1000 799L887 2171L562 2126.5L1000 799ZM1000 799L328.5 2145.5L43 1919.5L1000 799ZM1000 799L-274 1892L-511.5 1569.5L1000 799ZM1000 799L-566 1327L-588 924.5L1000 799ZM1000 799L-689.5 686.5L-705 249.5L1000 799ZM1000 799L-461.5 74.5L-104 -142.5L1000 799ZM1000 799L131 -207H464.5L1000 799Z" fill="#FFF6CE" fill-opacity="0.24"/>
</g>
<defs>
<clipPath id="clip0_1134_9451">
<rect width="2000" height="1600" fill="white"/>
</clipPath>
</defs>
</svg>
