<svg width="120" height="120" viewBox="0 0 120 120" fill="none" xmlns="http://www.w3.org/2000/svg">
<g clip-path="url(#clip0_1_2)">
<path d="M60 93C51.2479 93 42.8542 89.5232 36.6655 83.3345C30.4768 77.1458 27 68.7521 27 60C27 51.2479 30.4768 42.8542 36.6655 36.6655C42.8542 30.4768 51.2479 27 60 27V0C48.1331 0 36.5327 3.51893 26.6658 10.1118C16.7988 16.7047 9.10851 26.0754 4.56725 37.039C0.0259914 48.0026 -1.1622 60.0666 1.15291 71.7054C3.46803 83.3443 9.18245 94.0353 17.5736 102.426C25.9647 110.818 36.6557 116.532 48.2946 118.847C59.9335 121.162 71.9975 119.974 82.961 115.433C93.9246 110.892 103.295 103.201 109.888 93.3342C116.481 83.4673 120 71.8669 120 60H93C93 68.7521 89.5233 77.1458 83.3346 83.3345C77.1459 89.5232 68.7522 93 60 93Z" fill="#2354E6"/>
<path d="M93 27H60V60H93V27Z" fill="#17E6A1"/>
</g>
<defs>
<clipPath id="clip0_1_2">
<rect width="120" height="120" fill="white"/>
</clipPath>
</defs>
</svg>
