<svg width="180" height="180" viewBox="0 0 180 180" fill="none" xmlns="http://www.w3.org/2000/svg">
<rect width="180" height="180" rx="40" fill="black"/>
<path d="M32 35.6719C32 34.1962 33.2078 33 34.6977 33H67.969C69.4589 33 70.6667 34.1962 70.6667 35.6719V68.625C70.6667 70.1006 69.4589 71.2969 67.969 71.2969H34.6977C33.2078 71.2969 32 70.1006 32 68.625V35.6719Z" fill="white"/>
<path d="M112.031 33C110.541 33 109.333 34.1962 109.333 35.6719V68.625C109.333 70.1006 110.541 71.2969 112.031 71.2969H145.302C146.792 71.2969 148 70.1006 148 68.625V35.6719C148 34.1962 146.792 33 145.302 33H112.031Z" fill="white"/>
<path d="M70.6667 73.5234C70.6667 72.0478 71.8744 70.8516 73.3643 70.8516H106.636C108.126 70.8516 109.333 72.0478 109.333 73.5234V106.477C109.333 107.952 108.126 109.148 106.636 109.148H73.3643C71.8744 109.148 70.6667 107.952 70.6667 106.477V73.5234Z" fill="white"/>
<path d="M32 111.375C32 109.899 33.2078 108.703 34.6977 108.703H67.969C69.4589 108.703 70.6667 109.899 70.6667 111.375V144.328C70.6667 145.804 69.4589 147 67.969 147H34.6977C33.2078 147 32 145.804 32 144.328V111.375Z" fill="white"/>
<path d="M112.031 108.703C110.541 108.703 109.333 109.899 109.333 111.375V144.328C109.333 145.804 110.541 147 112.031 147H145.302C146.792 147 148 145.804 148 144.328V111.375C148 109.899 146.792 108.703 145.302 108.703H112.031Z" fill="white"/>
</svg>
